/* XPM */
static char * furiusisomount_xpm[] = {
"32 32 485 2",
"  	c None",
". 	c #C5CDC4",
"+ 	c #D1D8CF",
"@ 	c #D2D7D0",
"# 	c #D7DAD6",
"$ 	c #E0E1E0",
"% 	c #DBDBDB",
"& 	c #C8C9C8",
"* 	c #BDCCC5",
"= 	c #D8EADF",
"- 	c #D5E8DB",
"; 	c #DAE9D9",
"> 	c #E3EEE0",
", 	c #EBF3E9",
"' 	c #F2F8F1",
") 	c #FAFCF9",
"! 	c #FFFFFF",
"~ 	c #E2E3E2",
"{ 	c #BFD0CB",
"] 	c #CDE5DD",
"^ 	c #CDE3D8",
"/ 	c #D1E5D8",
"( 	c #D5E7DA",
"_ 	c #DAE9DA",
": 	c #E2EEDF",
"< 	c #EAF2E7",
"[ 	c #F1F6EF",
"} 	c #F8FAF7",
"| 	c #FEFEFE",
"1 	c #E8E8E8",
"2 	c #9BA6A4",
"3 	c #C9E1DB",
"4 	c #C6E0D8",
"5 	c #CBE2D9",
"6 	c #CEE4D9",
"7 	c #D2E5D9",
"8 	c #D5E7D9",
"9 	c #D9E9D9",
"0 	c #E0ECDD",
"a 	c #E7F0E4",
"b 	c #EEF4EC",
"c 	c #F4F8F3",
"d 	c #F9FBF8",
"e 	c #FAFBF9",
"f 	c #F6FAF5",
"g 	c #B5BAB4",
"h 	c #A5B2B0",
"i 	c #C6E2DC",
"j 	c #C4DFD7",
"k 	c #C7E0D9",
"l 	c #CCE2D9",
"m 	c #CFE4D9",
"n 	c #D2E6D9",
"o 	c #D6E7DA",
"p 	c #DEEBDA",
"q 	c #E9F2E6",
"r 	c #EFF5ED",
"s 	c #F4F8F2",
"t 	c #F9FCF9",
"u 	c #F0F5EE",
"v 	c #EEF6EB",
"w 	c #BFC3BC",
"x 	c #9CA8A7",
"y 	c #C2E0DC",
"z 	c #C2DDD8",
"A 	c #C5DFD8",
"B 	c #C8E1D9",
"C 	c #CCE3D9",
"D 	c #D0E4D8",
"E 	c #D4E6DA",
"F 	c #D7E8DA",
"G 	c #DBEADA",
"H 	c #DFECDB",
"I 	c #E4EFE1",
"J 	c #E9F2E7",
"K 	c #F2F7F1",
"L 	c #EEF5EC",
"M 	c #E5EFE2",
"N 	c #E3F0DF",
"O 	c #B2B8B0",
"P 	c #D5E7E8",
"Q 	c #BEDCD7",
"R 	c #C2DED8",
"S 	c #CAE1D9",
"T 	c #CDE3D9",
"U 	c #D8E8DA",
"V 	c #DCEAD9",
"W 	c #DEECDA",
"X 	c #EBF3E8",
"Y 	c #E7F1E5",
"Z 	c #E4EEE1",
"` 	c #E0ECDC",
" .	c #E3F0E0",
"..	c #D6E0E2",
"+.	c #DBE7EA",
"@.	c #D8E6E8",
"#.	c #C5DFD9",
"$.	c #C7E0D8",
"%.	c #D9E9DA",
"&.	c #DFEBDA",
"*.	c #E2EDDF",
"=.	c #E3EFE0",
"-.	c #DEECDB",
";.	c #DFE7D2",
">.	c #D5D8C7",
",.	c #B9C0C1",
"'.	c #DCE9EC",
").	c #DCE8EB",
"!.	c #CEE2DE",
"~.	c #CBE2D8",
"{.	c #DAE7D7",
"].	c #E0EDDB",
"^.	c #DFEAD9",
"/.	c #DFE9D5",
"(.	c #E0E7D1",
"_.	c #E0E5CE",
":.	c #E2E6CD",
"<.	c #B1B3A8",
"[.	c #D7E1E3",
"}.	c #DBE8EA",
"|.	c #D6E6E4",
"1.	c #CFE4D8",
"2.	c #D3E3D3",
"3.	c #A7B8AE",
"4.	c #8B9C98",
"5.	c #839392",
"6.	c #849193",
"7.	c #8E999B",
"8.	c #A9B4B0",
"9.	c #D8E4D5",
"0.	c #DFEAD8",
"a.	c #DFE9D6",
"b.	c #DFE8D4",
"c.	c #E0E7D2",
"d.	c #E0E6D0",
"e.	c #E0E4CC",
"f.	c #D6D8C4",
"g.	c #CAD9E1",
"h.	c #D2E0E6",
"i.	c #DDE9EB",
"j.	c #DAE7E8",
"k.	c #D6E7DB",
"l.	c #C3D4C8",
"m.	c #879A95",
"n.	c #879895",
"o.	c #889696",
"p.	c #899697",
"q.	c #899497",
"r.	c #8A9398",
"s.	c #8A9198",
"t.	c #8C919A",
"u.	c #C9D4CA",
"v.	c #DFEBDB",
"w.	c #DEE9D6",
"x.	c #DFE6D0",
"y.	c #E1E5CE",
"z.	c #E1E4CC",
"A.	c #E4E6CC",
"B.	c #ACB7BE",
"C.	c #B8CAD7",
"D.	c #B9CAD7",
"E.	c #B9CBD7",
"F.	c #C5D5DE",
"G.	c #D1DFE4",
"H.	c #D0DDDE",
"I.	c #899B96",
"J.	c #889796",
"K.	c #899597",
"L.	c #8A9298",
"M.	c #8B9199",
"N.	c #8C909A",
"O.	c #8C8E9A",
"P.	c #8C8D9A",
"Q.	c #D3DDD0",
"R.	c #E0E7D3",
"S.	c #E0E6D1",
"T.	c #DFE5CF",
"U.	c #E1E5CD",
"V.	c #E1E4CB",
"W.	c #E1E2C9",
"X.	c #B9B9AA",
"Y.	c #AEBAC4",
"Z.	c #BACBD8",
"`.	c #C3D3DD",
" +	c #D1DFE5",
".+	c #A0B0AE",
"++	c #91A09E",
"@+	c #8E9B9B",
"#+	c #899596",
"$+	c #899397",
"%+	c #95A0A4",
"&+	c #959EA4",
"*+	c #8B8F99",
"=+	c #8C8F9A",
"-+	c #8D8D9B",
";+	c #8E8D9A",
">+	c #A1A3A8",
",+	c #E0EBD8",
"'+	c #E0E8D3",
")+	c #E0E4CD",
"!+	c #E1E3CA",
"~+	c #E1E2C8",
"{+	c #C6C7B4",
"]+	c #E0E4EB",
"^+	c #D9E0E9",
"/+	c #D2DBE5",
"(+	c #CCD6E2",
"_+	c #C5D2DE",
":+	c #BFCEDB",
"<+	c #B8C9D7",
"[+	c #B7C9D6",
"}+	c #B4C4D1",
"|+	c #859592",
"1+	c #8A9899",
"2+	c #8E9A9C",
"3+	c #929B9F",
"4+	c #818D8D",
"5+	c #838688",
"6+	c #8E8E9C",
"7+	c #8E8C9A",
"8+	c #908C99",
"9+	c #8E8895",
"0+	c #D8E1D1",
"a+	c #DFE6CF",
"b+	c #DFE5CD",
"c+	c #E2E4CD",
"d+	c #E5E5CF",
"e+	c #E3E3D1",
"f+	c #EBEEF5",
"g+	c #E6E9F0",
"h+	c #E5E8EF",
"i+	c #E7E9F0",
"j+	c #E7EAF1",
"k+	c #E8EAF1",
"l+	c #E4E7EF",
"m+	c #C3CCD1",
"n+	c #8D999A",
"o+	c #8E999C",
"p+	c #8D969A",
"q+	c #8E989C",
"r+	c #928F97",
"s+	c #918D9A",
"t+	c #948E99",
"u+	c #948D98",
"v+	c #CECEC7",
"w+	c #EAECDD",
"x+	c #EBECDE",
"y+	c #EEEDE0",
"z+	c #EFEDE3",
"A+	c #F0EEE4",
"B+	c #F0EEE3",
"C+	c #F4F3E8",
"D+	c #ECEFF5",
"E+	c #C7CED2",
"F+	c #909A9D",
"G+	c #90989D",
"H+	c #8F969D",
"I+	c #868C91",
"J+	c #8F898E",
"K+	c #98929D",
"L+	c #9A939D",
"M+	c #9B929C",
"N+	c #D3CECA",
"O+	c #F0EDE3",
"P+	c #F5F3E9",
"Q+	c #EAECF3",
"R+	c #E7EAF0",
"S+	c #E5E9F0",
"T+	c #E3E6EE",
"U+	c #E3E5EE",
"V+	c #E6E6EF",
"W+	c #E7E6F0",
"X+	c #D3D4DC",
"Y+	c #878F95",
"Z+	c #8B9099",
"`+	c #9396A0",
" @	c #9F969F",
".@	c #948C96",
"+@	c #948A94",
"@@	c #948892",
"#@	c #CCBFB2",
"$@	c #DFD6C5",
"%@	c #E4DDCE",
"&@	c #E9E5D7",
"*@	c #EFEDE1",
"=@	c #F1F0E5",
"-@	c #F0EFE4",
";@	c #F2F1E6",
">@	c #CFD1DB",
",@	c #D4D7E6",
"'@	c #D0D4E4",
")@	c #D4D5E6",
"!@	c #DBDCEA",
"~@	c #E1E1ED",
"{@	c #E6E5EF",
"]@	c #8E949C",
"^@	c #94929C",
"/@	c #878287",
"(@	c #878085",
"_@	c #988F98",
":@	c #968E98",
"<@	c #9D949D",
"[@	c #9D919A",
"}@	c #9D9098",
"|@	c #D6C7B3",
"1@	c #D6C6B2",
"2@	c #D5C5B1",
"3@	c #D7C9B5",
"4@	c #DCD0BE",
"5@	c #E1D9C8",
"6@	c #DAD5C8",
"7@	c #AEB0BC",
"8@	c #CDD0E2",
"9@	c #D0D3E4",
"0@	c #D6D9E7",
"a@	c #DEDDEB",
"b@	c #E4E3EE",
"c@	c #E8E6F1",
"d@	c #BBBCC6",
"e@	c #8B8D99",
"f@	c #908A97",
"g@	c #918B96",
"h@	c #948B95",
"i@	c #958A94",
"j@	c #988C94",
"k@	c #9E9199",
"l@	c #C7B9BA",
"m@	c #ECE0DC",
"n@	c #E4D7CE",
"o@	c #DCCEBF",
"p@	c #D7C8B4",
"q@	c #B8AEA0",
"r@	c #9D9EA6",
"s@	c #CFD1E4",
"t@	c #D2D5E5",
"u@	c #D9DAE9",
"v@	c #E0E0EC",
"w@	c #E5E4EF",
"x@	c #E8E7F0",
"y@	c #A4A3B0",
"z@	c #8E8B98",
"A@	c #908C98",
"B@	c #928B97",
"C@	c #938C96",
"D@	c #968B94",
"E@	c #978A93",
"F@	c #978991",
"G@	c #AA99A0",
"H@	c #E8D9D6",
"I@	c #EBDFDA",
"J@	c #EADED9",
"K@	c #EBDEDA",
"L@	c #E3D6CC",
"M@	c #DBCCBD",
"N@	c #D5C6B2",
"O@	c #D7C8B3",
"P@	c #A2998F",
"Q@	c #D4D7E8",
"R@	c #D4D6E6",
"S@	c #E6E5F0",
"T@	c #E7E5F0",
"U@	c #B5B2BD",
"V@	c #908995",
"W@	c #928A95",
"X@	c #958A95",
"Y@	c #968992",
"Z@	c #978890",
"`@	c #B6A6AD",
" #	c #DCC6CC",
".#	c #DABFC3",
"+#	c #E3D1CE",
"@#	c #EBE0DB",
"##	c #EBDFDB",
"$#	c #E7D9CE",
"%#	c #AEB0BA",
"&#	c #D7D8E7",
"*#	c #E8E7F1",
"=#	c #DFDEE7",
"-#	c #C2BDC8",
";#	c #B4ADB6",
">#	c #B4AAB2",
",#	c #C1B5BC",
"'#	c #DACBD1",
")#	c #DFCBD1",
"!#	c #DCC4C9",
"~#	c #DABFC2",
"{#	c #D8BDBB",
"]#	c #DEC7C1",
"^#	c #C3BAB6",
"/#	c #DDDEED",
"(#	c #DFDFEC",
"_#	c #E7E6EF",
":#	c #E6E3EC",
"<#	c #E4DDE5",
"[#	c #E1D5DD",
"}#	c #DFCED5",
"|#	c #DDC9CE",
"1#	c #DBC1C6",
"2#	c #D9BEBF",
"3#	c #D8BDB9",
"4#	c #D7BCB5",
"5#	c #DAC1BA",
"6#	c #E9DCD7",
"7#	c #F0E3DE",
"8#	c #A9AAB1",
"9#	c #E9E9F1",
"0#	c #EBEAF2",
"a#	c #EAE9F1",
"b#	c #E5E0E9",
"c#	c #E3DAE2",
"d#	c #E1D2DA",
"e#	c #DFCDD3",
"f#	c #DDC6CB",
"g#	c #DAC0C4",
"h#	c #D9BEBE",
"i#	c #D8BDB7",
"j#	c #D8BDB5",
"k#	c #D8BDB6",
"l#	c #D8BCB6",
"m#	c #E6D7D1",
"n#	c #ECE0DB",
"o#	c #B4ABA8",
"p#	c #D9D8DF",
"q#	c #EEEDF3",
"r#	c #EFEEF5",
"s#	c #EFEFF5",
"t#	c #EEEDF4",
"u#	c #ECEBF2",
"v#	c #E9E8F0",
"w#	c #E6E6F0",
"x#	c #E6E4EE",
"y#	c #E4DDE6",
"z#	c #E2D7DF",
"A#	c #E0D1D8",
"B#	c #DECBD0",
"C#	c #DABFC1",
"D#	c #D9BEBC",
"E#	c #D7BCB6",
"F#	c #D7BBB4",
"G#	c #CEBEB9",
"H#	c #E7E7EC",
"I#	c #F3F3F7",
"J#	c #F4F3F7",
"K#	c #F2F1F7",
"L#	c #E5E2EB",
"M#	c #E3DCE4",
"N#	c #E1D4DD",
"O#	c #DFCFD5",
"P#	c #CCB3AD",
"Q#	c #E7E7EA",
"R#	c #F8F7FA",
"S#	c #F5F5F8",
"T#	c #EAE9F2",
"U#	c #E3D9E1",
"V#	c #E1D3DA",
"W#	c #C5AEA7",
"X#	c #CACACB",
"Y#	c #FDFCFF",
"Z#	c #F0EFF5",
"`#	c #E4DEE6",
" $	c #DCC1B9",
".$	c #A99691",
"+$	c #848486",
"@$	c #DBDBDF",
"#$	c #F4F3FA",
"$$	c #E1D4DC",
"%$	c #DDC8CE",
"&$	c #D8BDBA",
"*$	c #BDA7A1",
"=$	c #6E6563",
"-$	c #7C7C7F",
";$	c #B8B7BD",
">$	c #D6D5DE",
",$	c #E9E4EE",
"'$	c #E7DDE6",
")$	c #E4D6DE",
"!$	c #E2D0D6",
"~$	c #E1C9CF",
"{$	c #DFC3C8",
"]$	c #C6AEAE",
"^$	c #A3918D",
"/$	c #68605F",
"($	c #686567",
"_$	c #767174",
":$	c #746D6F",
"                          . + @ # $ % &                         ",
"                    * = - ; > , ' ) ! ! ! ~                     ",
"                { ] ^ / ( _ : < [ } | | ! | ! 1                 ",
"            2 3 4 5 6 7 8 9 0 a b c d | ! ! | e f g             ",
"          h i j k l m n o _ p > q r s } t ) } c u v w           ",
"        x y z A B C D E F G p H I J b [ K ' [ L < M N O         ",
"        P Q R 4 S T / ( U V H W H > a J X X < Y Z ` W  .        ",
"      ..+.@.#.$.5 6 7 8 %.V H H H &.` *.=.=.: ` -.-.&.;.>.      ",
"    ,.'.).+.).!.~.m n o _ H H {.{.H ].p p p W p ^./.(._.:.<.    ",
"    [.+.).).}.).|.1.E F 2.3.4.5.6.7.8.9.H -.0.a.b.c.d._.e.f.    ",
"    g.h.i.).+.).).j.k.l.m.n.o.p.q.r.s.t.u.v.0.w.b.c.x.y.z.A.    ",
"  B.C.D.E.F.G.).).).H.I.n.J.K.q.L.M.N.O.P.Q.0.w.R.S.T.U.V.W.X.  ",
"  Y.C.D.Z.Z.D.D.`. +.+++@+#+$+%+&+*+=+-+;+>+,+/.'+(._.)+!+~+{+  ",
"  ]+^+/+(+_+:+<+[+}+|+1+2+3+4+    5+6+7+8+9+0+b.;.a+b+e.c+d+e+  ",
"  f+g+h+g+i+j+k+l+m+n+o+p+q+        r+s+t+u+v+w+x+y+z+A+A+B+C+  ",
"  D+g+g+g+g+g+g+g+E+F+G+H+I+        J+K+L+M+N+B+O+B+B+B+B+B+P+  ",
"  Q+g+R+S+T+U+V+W+X+Y+M.Z+`+         @.@+@@@#@$@%@&@*@=@-@B+;@  ",
"  >@,@'@)@!@~@{@W+{@]@*+=+P.^@/@(@_@:@<@[@}@|@|@|@1@2@3@4@5@6@  ",
"  7@8@9@0@a@b@W+W+c@d@e@-+7+8+f@g@h@i@j@k@l@m@n@o@1@|@p@p@|@q@  ",
"  r@s@t@u@v@w@{@W+{@x@y@z@A@B@C@h@D@E@F@G@H@I@J@I@K@L@M@N@O@P@  ",
"    Q@R@!@~@{@W+W+W+S@T@U@V@W@X@D@Y@Z@`@ #.#+#@#J@I@J@##J@$#    ",
"    %#&#a@b@W+W+W+W+W+{@*#=#-#;#>#,#'#)#!#~#{#]#I@J@I@I@J@^#    ",
"      /#(#w@_#W+{@S@W+W+W+W+W+:#<#[#}#|#1#2#3#4#5#6#J@I@7#      ",
"      8#W+9#0#0#a#x@_#W+W+W+{@b#c#d#e#f#g#h#i#j#k#l#m#n#o#      ",
"        p#q#r#s#t#u#v#_#W+w#x#y#z#A#B#!#C#D#E#k#k#k#F#G#        ",
"          H#I#J#K#r#u#x@S@W+L#M#N#O#|#1#2#3#j#k#k#4#P#          ",
"            Q#R#S#K#t#T#_#{@b#U#V#e#f#g#h#i#j#k#k#W#            ",
"              X#Y#I#Z#0#W+x#`#z#A#B#!#C#D#E#4# $.$              ",
"                +$@$#$0#W+L#M#$$O#%$1#2#&$ $*$=$                ",
"                    -$;$>$,$'$)$!$~${$]$^$/$                    ",
"                            ($_$:$                              ",
"                                                                "};
